# xmcd
#
# Track frame offsets:
#	150
#	20222
#	35095
#	53422
#	71000
#	87942
#	108475
#	120912
#	140542
#	161734
#	176625
#	193170
#	212827
#	232432
#	251877
#	267305
#
# Disc length: 3777 seconds
#
# Revision: 2
# Processed by: cddbd v1.4PL0 Copyright (c) Steve Scherf et al.
# Submitted via: audiograbber 1.82.01
#
DISCID=f60ebf10
DTITLE=鄺美雲 - 20世紀光輝印記
DYEAR=1900
DGENRE=Pop
TTITLE0=堆積情感
TTITLE1=再坐一會
TTITLE2=離別的搖籃曲
TTITLE3=未曾心愛已無情
TTITLE4=長夜抱琴
TTITLE5=冰凍的女人
TTITLE6=星期六約會
TTITLE7=留下陪我
TTITLE8=分手之後
TTITLE9=寂寞的風
TTITLE10=相逢在半生
TTITLE11=心聲
TTITLE12=朝花
TTITLE13=潮汐
TTITLE14=醉
TTITLE15=迷惘的愛
EXTD=
EXTT0=
EXTT1=
EXTT2=
EXTT3=
EXTT4=
EXTT5=
EXTT6=
EXTT7=
EXTT8=
EXTT9=
EXTT10=
EXTT11=
EXTT12=
EXTT13=
EXTT14=
EXTT15=
PLAYORDER=
